<svg width="1200" height="720" viewBox="0 0 1200 720" fill="none" xmlns="http://www.w3.org/2000/svg">
  <rect width="1200" height="720" rx="28" fill="#08131D"/>
  <rect x="36" y="36" width="1128" height="648" rx="24" fill="#0D1D29" stroke="#17384C"/>
  <rect x="72" y="72" width="264" height="576" rx="18" fill="#102433"/>
  <rect x="372" y="72" width="756" height="84" rx="18" fill="#102433"/>
  <rect x="398" y="98" width="272" height="16" rx="8" fill="#E5EDF5" fill-opacity=".9"/>
  <rect x="398" y="124" width="420" height="12" rx="6" fill="#8FA2B3"/>
  <rect x="96" y="122" width="216" height="40" rx="12" fill="#17384C"/>
  <rect x="96" y="176" width="216" height="40" rx="12" fill="#102C3D"/>
  <rect x="96" y="230" width="216" height="40" rx="12" fill="#102C3D"/>
  <rect x="96" y="284" width="216" height="40" rx="12" fill="#102C3D"/>
  <rect x="372" y="184" width="756" height="428" rx="22" fill="#0E2230" stroke="#17384C"/>
  <rect x="420" y="236" width="214" height="44" rx="14" fill="#28B6D8"/>
  <rect x="420" y="308" width="654" height="236" rx="20" fill="#102433" stroke="#2A4457"/>
  <rect x="452" y="344" width="240" height="18" rx="9" fill="#E5EDF5"/>
  <rect x="452" y="378" width="398" height="12" rx="6" fill="#90A3B4"/>
  <rect x="452" y="430" width="230" height="44" rx="12" fill="#0E2A3B"/>
  <rect x="704" y="430" width="230" height="44" rx="12" fill="#0E2A3B"/>
  <rect x="956" y="430" width="86" height="44" rx="12" fill="#0E2A3B"/>
  <rect x="452" y="496" width="160" height="40" rx="12" fill="#625BFF" fill-opacity=".2"/>
  <text x="95" y="112" fill="#7DD6EA" font-family="IBM Plex Sans, sans-serif" font-size="22" font-weight="600">Playground navigator</text>
  <text x="96" y="408" fill="#90A3B4" font-family="IBM Plex Sans, sans-serif" font-size="18">Dialog scene selected</text>
  <text x="399" y="212" fill="#90A3B4" font-family="IBM Plex Sans, sans-serif" font-size="20">Scene: Dialog Basic</text>
  <text x="452" y="456" fill="#DCE6EE" font-family="IBM Plex Sans, sans-serif" font-size="18">Player name</text>
  <text x="705" y="456" fill="#DCE6EE" font-family="IBM Plex Sans, sans-serif" font-size="18">Region</text>
  <text x="970" y="456" fill="#DCE6EE" font-family="IBM Plex Sans, sans-serif" font-size="18">Save</text>
  <text x="439" y="263" fill="#06212D" font-family="IBM Plex Sans, sans-serif" font-size="20" font-weight="700">Open settings dialog</text>
</svg>
