<svg width="1200" height="720" viewBox="0 0 1200 720" fill="none" xmlns="http://www.w3.org/2000/svg">
  <rect width="1200" height="720" rx="28" fill="#08131D"/>
  <rect x="36" y="36" width="1128" height="648" rx="24" fill="#0D1D29" stroke="#17384C"/>
  <rect x="72" y="72" width="1056" height="112" rx="20" fill="#102433"/>
  <rect x="104" y="106" width="264" height="20" rx="10" fill="#E5EDF5"/>
  <rect x="104" y="140" width="390" height="12" rx="6" fill="#90A3B4"/>
  <rect x="72" y="220" width="508" height="392" rx="20" fill="#102433"/>
  <rect x="620" y="220" width="508" height="392" rx="20" fill="#102433"/>
  <rect x="108" y="266" width="220" height="14" rx="7" fill="#7DD6EA"/>
  <rect x="108" y="298" width="436" height="52" rx="16" fill="#0E2A3B"/>
  <rect x="108" y="382" width="160" height="12" rx="6" fill="#7DD6EA"/>
  <rect x="108" y="412" width="436" height="52" rx="16" fill="#0E2A3B"/>
  <rect x="108" y="502" width="168" height="40" rx="12" fill="#102C3D"/>
  <rect x="376" y="502" width="168" height="40" rx="12" fill="#28B6D8"/>
  <rect x="656" y="266" width="180" height="16" rx="8" fill="#E5EDF5"/>
  <rect x="656" y="306" width="366" height="72" rx="18" fill="#0E2A3B"/>
  <rect x="656" y="396" width="366" height="72" rx="18" fill="#0E2A3B"/>
  <rect x="656" y="486" width="366" height="72" rx="18" fill="#0E2A3B"/>
  <text x="110" y="329" fill="#DCE6EE" font-family="IBM Plex Sans, sans-serif" font-size="20">player-one</text>
  <text x="110" y="443" fill="#DCE6EE" font-family="IBM Plex Sans, sans-serif" font-size="20">Asia Pacific</text>
  <text x="144" y="528" fill="#DCE6EE" font-family="IBM Plex Sans, sans-serif" font-size="18">Cancel</text>
  <text x="435" y="528" fill="#05202B" font-family="IBM Plex Sans, sans-serif" font-size="18" font-weight="700">Saved</text>
  <text x="656" y="332" fill="#90A3B4" font-family="IBM Plex Sans, sans-serif" font-size="18">1. SystemProvider owns theme and density.</text>
  <text x="656" y="422" fill="#90A3B4" font-family="IBM Plex Sans, sans-serif" font-size="18">2. Style recipes skin the host instances.</text>
  <text x="656" y="512" fill="#90A3B4" font-family="IBM Plex Sans, sans-serif" font-size="18">3. Dialog + TextField + Select complete the flow.</text>
</svg>
