<svg xmlns="http://www.w3.org/2000/svg" viewBox="0 0 24 24" aria-hidden="true">
  <rect x="3" y="3" width="18" height="18" rx="3" fill="currentColor"/>
  <path d="M7.2 8.4h6.1v1.7h-2.1v5.5H9.3v-5.5H7.2V8.4Z" fill="white"/>
  <path d="M14 15.2v-1.9c.4.3.9.5 1.4.7.5.2.9.3 1.3.3.3 0 .5 0 .7-.1.2-.1.3-.2.3-.4 0-.2-.1-.3-.3-.4-.2-.1-.5-.2-.9-.3-.8-.2-1.4-.5-1.8-.8-.4-.3-.6-.8-.6-1.4 0-.8.3-1.4.9-1.8.6-.4 1.4-.6 2.4-.6.4 0 .9 0 1.3.1.4.1.8.2 1.1.3v1.8c-.3-.2-.7-.4-1.1-.5-.4-.1-.8-.2-1.2-.2-.3 0-.5 0-.7.1-.2.1-.3.2-.3.4 0 .2.1.3.3.4.2.1.5.2.8.3.8.2 1.4.5 1.8.8.4.3.6.8.6 1.5 0 .8-.3 1.4-1 1.8-.6.4-1.5.6-2.5.6-.5 0-.9 0-1.4-.1-.5-.2-.9-.3-1.1-.6Z" fill="white"/>
</svg>
